<svg xmlns="http://www.w3.org/2000/svg" width="1280" height="720"><rect width="1280" height="720" x="0" y="0" fill="#FFFFFF" id="backgorund"/><g transform="translate(10,10)" id="viz"><g id="arcs"><path d="M30,350A23.59870170233448,23.59870170233448 0,0,1 77.19740340466896,350" fill="none" stroke="gray" stroke-width="0" opacity="0.5"/><path d="M30,350A33.19740340466896,33.19740340466896 0,0,1 96.39480680933792,350" fill="none" stroke="gray" stroke-width="0" opacity="0.5"/><path d="M30,350A42.79610510700344,42.79610510700344 0,0,1 115.59221021400688,350" fill="none" stroke="gray" stroke-width="0" opacity="0.5"/><path d="M30,350A58.41944757010502,58.41944757010502 0,0,1 146.83889514021004,350" fill="none" stroke="gray" stroke-width="15" opacity="0.5"/><path d="M30,350A78.30285436935787,78.30285436935787 0,0,1 186.60570873871575,350" fill="none" stroke="gray" stroke-width="15" opacity="0.5"/><path d="M30,350A92.16162040784366,92.16162040784366 0,0,1 214.3232408156873,350" fill="none" stroke="gray" stroke-width="0" opacity="0.5"/><path d="M30,350A103.6654807990095,103.6654807990095 0,0,1 237.330961598019,350" fill="none" stroke="gray" stroke-width="3" opacity="0.5"/><path d="M30,350A115.16934119017534,115.16934119017534 0,0,1 260.3386823803507,350" fill="none" stroke="gray" stroke-width="0" opacity="0.5"/><path d="M30,350A124.76804289250984,124.76804289250984 0,0,1 279.5360857850197,350" fill="none" stroke="gray" stroke-width="0" opacity="0.5"/><path d="M30,350A142.8868732671469,142.8868732671469 0,0,1 315.7737465342938,350" fill="none" stroke="gray" stroke-width="30" opacity="0.5"/><path d="M30,350A164.8160210194467,164.8160210194467 0,0,1 359.6320420388934,350" fill="none" stroke="gray" stroke-width="12" opacity="0.5"/><path d="M30,350A184.249680860211,184.249680860211 0,0,1 398.499361720422,350" fill="none" stroke="gray" stroke-width="15" opacity="0.5"/><path d="M30,350A201.77818201214393,201.77818201214393 0,0,1 433.55636402428786,350" fill="none" stroke="gray" stroke-width="3" opacity="0.5"/><path d="M30,350A215.18720109214112,215.18720109214112 0,0,1 460.37440218428225,350" fill="none" stroke="gray" stroke-width="3" opacity="0.5"/><path d="M30,350A226.69106148330695,226.69106148330695 0,0,1 483.3821229666139,350" fill="none" stroke="gray" stroke-width="0" opacity="0.5"/><path d="M528.7017462304444,350A225.75217141288772,225.75217141288772 0,0,1 77.19740340466896,350" fill="none" stroke="gray" stroke-width="0" opacity="0.5"/><path d="M528.7017462304444,350A216.15346971055325,216.15346971055325 0,0,1 96.39480680933792,350" fill="none" stroke="gray" stroke-width="0" opacity="0.5"/><path d="M528.7017462304444,350A190.93142554511718,190.93142554511718 0,0,1 146.83889514021004,350" fill="none" stroke="gray" stroke-width="15" opacity="0.5"/><path d="M528.7017462304444,350A22.659811631915204,22.659811631915204 0,0,1 574.0213694942748,350" fill="none" stroke="gray" stroke-width="0" opacity="0.5"/><path d="M528.7017462304444,350A36.925180000916384,36.925180000916384 0,0,1 602.5521062322772,350" fill="none" stroke="gray" stroke-width="9" opacity="0.5"/><path d="M528.7017462304444,350A51.19054836991751,51.19054836991751 0,0,1 631.0828429702794,350" fill="none" stroke="gray" stroke-width="0" opacity="0.5"/><path d="M528.7017462304444,350A65.04931440840329,65.04931440840329 0,0,1 658.800375047251,350" fill="none" stroke="gray" stroke-width="9" opacity="0.5"/><path d="M528.7017462304444,350A106.4639998480753,106.4639998480753 0,0,1 315.7737465342938,350" fill="none" stroke="gray" stroke-width="30" opacity="0.5"/><path d="M528.7017462304444,350A80.81323913572044,80.81323913572044 0,0,1 690.3282245018853,350" fill="none" stroke="gray" stroke-width="3" opacity="0.5"/><path d="M528.7017462304444,350A65.10119225501123,65.10119225501123 0,0,1 398.499361720422,350" fill="none" stroke="gray" stroke-width="15" opacity="0.5"/><path d="M528.7017462304444,350A92.3170995268863,92.3170995268863 0,0,1 713.335945284217,350" fill="none" stroke="gray" stroke-width="0" opacity="0.5"/><path d="M528.7017462304444,350A22.65981163191526,22.65981163191526 0,0,1 483.3821229666139,350" fill="none" stroke="gray" stroke-width="0" opacity="0.5"/><path d="M30,350A351.266674344443,351.266674344443 0,0,1 732.533348688886,350" fill="none" stroke="gray" stroke-width="0" opacity="0.5"/><path d="M30,350A360.8653760467775,360.8653760467775 0,0,1 751.730752093555,350" fill="none" stroke="gray" stroke-width="0" opacity="0.5"/><path d="M528.7017462304444,350A123.01836332272114,123.01836332272114 0,0,1 774.7384728758867,350" fill="none" stroke="gray" stroke-width="3" opacity="0.5"/><path d="M528.7017462304444,350A134.522223713887,134.522223713887 0,0,1 797.7461936582184,350" fill="none" stroke="gray" stroke-width="0" opacity="0.5"/><path d="M30,350A286.2760531161386,286.2760531161386 0,0,1 602.5521062322772,350" fill="none" stroke="gray" stroke-width="9" opacity="0.5"/><path d="M30,350A398.1384651981104,398.1384651981104 0,0,1 826.2769303962208,350" fill="none" stroke="gray" stroke-width="6" opacity="0.5"/><path d="M30,350A314.4001875236255,314.4001875236255 0,0,1 658.800375047251,350" fill="none" stroke="gray" stroke-width="6" opacity="0.5"/><path d="M528.7017462304444,350A148.78759208288818,148.78759208288818 0,0,1 826.2769303962208,350" fill="none" stroke="gray" stroke-width="12" opacity="0.5"/><path d="M30,350A415.09813482332976,415.09813482332976 0,0,1 860.1962696466595,350" fill="none" stroke="gray" stroke-width="3" opacity="0.5"/><path d="M528.7017462304444,350A178.04026466666028,178.04026466666028 0,0,1 884.782275563765,350" fill="none" stroke="gray" stroke-width="0" opacity="0.5"/><path d="M528.7017462304444,350A187.63896636899477,187.63896636899477 0,0,1 903.979678968434,350" fill="none" stroke="gray" stroke-width="0" opacity="0.5"/><path d="M528.7017462304444,350A197.23766807132927,197.23766807132927 0,0,1 923.177082373103,350" fill="none" stroke="gray" stroke-width="0" opacity="0.5"/><path d="M528.7017462304444,350A165.74726170810754,165.74726170810754 0,0,1 860.1962696466595,350" fill="none" stroke="gray" stroke-width="3" opacity="0.5"/><path d="M528.7017462304444,350A208.74152846249513,208.74152846249513 0,0,1 946.1848031554347,350" fill="none" stroke="gray" stroke-width="3" opacity="0.5"/><path d="M30,350A469.5962619688832,469.5962619688832 0,0,1 969.1925239377664,350" fill="none" stroke="gray" stroke-width="0" opacity="0.5"/><path d="M30,350A481.88926492743593,481.88926492743593 0,0,1 993.7785298548719,350" fill="none" stroke="gray" stroke-width="6" opacity="0.5"/><path d="M30,350A496.8765691422069,496.8765691422069 0,0,1 1023.7531382844138,350" fill="none" stroke="gray" stroke-width="6" opacity="0.5"/><path d="M30,350A512.9798894784224,512.9798894784224 0,0,1 1055.9597789568447,350" fill="none" stroke="gray" stroke-width="6" opacity="0.5"/><path d="M30,350A532.988571849494,532.988571849494 0,0,1 1095.977143698988,350" fill="none" stroke="gray" stroke-width="18" opacity="0.5"/><path d="M30,350A551.0920955317342,551.0920955317342 0,0,1 1132.1841910634685,350" fill="none" stroke="gray" stroke-width="3" opacity="0.5"/><path d="M30,350A562.5959559229001,562.5959559229001 0,0,1 1155.1919118458002,350" fill="none" stroke="gray" stroke-width="0" opacity="0.5"/><path d="M528.7017462304444,350A326.65410188767504,326.65410188767504 0,0,1 1182.0099500057945,350" fill="none" stroke="gray" stroke-width="12" opacity="0.5"/><path d="M528.7017462304444,350A263.62901636320015,263.62901636320015 0,0,1 1055.9597789568447,350" fill="none" stroke="gray" stroke-width="6" opacity="0.5"/><path d="M528.7017462304444,350A283.63769873427174,283.63769873427174 0,0,1 1095.977143698988,350" fill="none" stroke="gray" stroke-width="18" opacity="0.5"/><path d="M30,350A592.1082953391127,592.1082953391127 0,0,1 1214.2165906782254,350" fill="none" stroke="gray" stroke-width="3" opacity="0.5"/><path d="M30,350A604.4012982976654,604.4012982976654 0,0,1 1238.802596595331,350" fill="none" stroke="gray" stroke-width="0" opacity="0.5"/><path d="M528.7017462304444,350A342.7574222238905,342.7574222238905 0,0,1 1214.2165906782254,350" fill="none" stroke="gray" stroke-width="3" opacity="0.5"/><path d="M528.7017462304444,350A364.6491268847777,364.6491268847777 0,0,1 1257.9999999999998,350" fill="none" stroke="gray" stroke-width="0" opacity="0.5"/></g><g id="nodes"><g><circle cx="30" cy="350" r="30"/><text transform="translate(30,385) rotate(-90)" alignment-baseline="middle" font-family="Helvetica, Arial, sans-serif" font-size="12" text-anchor="end">Julián</text></g><g><circle cx="77.19740340466896" cy="350" r="2"/><text transform="translate(77.19740340466896,357) rotate(-90)" alignment-baseline="middle" font-family="Helvetica, Arial, sans-serif" font-size="12" text-anchor="end">Despertar</text></g><g><circle cx="96.39480680933792" cy="350" r="2"/><text transform="translate(96.39480680933792,357) rotate(-90)" alignment-baseline="middle" font-family="Helvetica, Arial, sans-serif" font-size="12" text-anchor="end">Desayuno</text></g><g><circle cx="115.59221021400688" cy="350" r="2"/><text transform="translate(115.59221021400688,357) rotate(-90)" alignment-baseline="middle" font-family="Helvetica, Arial, sans-serif" font-size="12" text-anchor="end">Aseo personal</text></g><g><circle cx="146.83889514021004" cy="350" r="14.049281521534187"/><text transform="translate(146.83889514021004,369.04928152153417) rotate(-90)" alignment-baseline="middle" font-family="Helvetica, Arial, sans-serif" font-size="12" text-anchor="end">Cambio de Ropa a Marilú</text></g><g><circle cx="186.60570873871575" cy="350" r="10.520128672302583"/><text transform="translate(186.60570873871575,365.5201286723026) rotate(-90)" alignment-baseline="middle" font-family="Helvetica, Arial, sans-serif" font-size="12" text-anchor="end">Ir al Cole</text></g><g><circle cx="214.3232408156873" cy="350" r="2"/><text transform="translate(214.3232408156873,357) rotate(-90)" alignment-baseline="middle" font-family="Helvetica, Arial, sans-serif" font-size="12" text-anchor="end">Gym + Aseo personal</text></g><g><circle cx="237.330961598019" cy="350" r="5.810317377662722"/><text transform="translate(237.330961598019,360.8103173776627) rotate(-90)" alignment-baseline="middle" font-family="Helvetica, Arial, sans-serif" font-size="12" text-anchor="end">Trabajo</text></g><g><circle cx="260.3386823803507" cy="350" r="2"/><text transform="translate(260.3386823803507,357) rotate(-90)" alignment-baseline="middle" font-family="Helvetica, Arial, sans-serif" font-size="12" text-anchor="end">Break del trabajo</text></g><g><circle cx="279.5360857850197" cy="350" r="2"/><text transform="translate(279.5360857850197,357) rotate(-90)" alignment-baseline="middle" font-family="Helvetica, Arial, sans-serif" font-size="12" text-anchor="end">Almuerzo en solitario</text></g><g><circle cx="315.7737465342938" cy="350" r="19.040257344605166"/><text transform="translate(315.7737465342938,374.04025734460515) rotate(-90)" alignment-baseline="middle" font-family="Helvetica, Arial, sans-serif" font-size="12" text-anchor="end">Tiempo Marilú-Papá</text></g><g><circle cx="359.6320420388934" cy="350" r="9.620634755325444"/><text transform="translate(359.6320420388934,364.62063475532545) rotate(-90)" alignment-baseline="middle" font-family="Helvetica, Arial, sans-serif" font-size="12" text-anchor="end">Preparar cena</text></g><g><circle cx="398.499361720422" cy="350" r="14.049281521534187"/><text transform="translate(398.499361720422,369.04928152153417) rotate(-90)" alignment-baseline="middle" font-family="Helvetica, Arial, sans-serif" font-size="12" text-anchor="end">Cena en familia</text></g><g><circle cx="433.55636402428786" cy="350" r="5.810317377662722"/><text transform="translate(433.55636402428786,360.8103173776627) rotate(-90)" alignment-baseline="middle" font-family="Helvetica, Arial, sans-serif" font-size="12" text-anchor="end">Estudio</text></g><g><circle cx="460.37440218428225" cy="350" r="5.810317377662722"/><text transform="translate(460.37440218428225,360.8103173776627) rotate(-90)" alignment-baseline="middle" font-family="Helvetica, Arial, sans-serif" font-size="12" text-anchor="end">Ocio</text></g><g><circle cx="483.3821229666139" cy="350" r="2"/><text transform="translate(483.3821229666139,357) rotate(-90)" alignment-baseline="middle" font-family="Helvetica, Arial, sans-serif" font-size="12" text-anchor="end">Dormir</text></g><g><circle cx="528.7017462304444" cy="350" r="28.122219859161483"/><text transform="translate(528.7017462304444,383.1222198591615) rotate(-90)" alignment-baseline="middle" font-family="Helvetica, Arial, sans-serif" font-size="12" text-anchor="end">Marilú</text></g><g><circle cx="574.0213694942748" cy="350" r="2"/><text transform="translate(574.0213694942748,357) rotate(-90)" alignment-baseline="middle" font-family="Helvetica, Arial, sans-serif" font-size="12" text-anchor="end">En el Cole</text></g><g><circle cx="602.5521062322772" cy="350" r="11.333333333333334"/><text transform="translate(602.5521062322772,366.3333333333333) rotate(-90)" alignment-baseline="middle" font-family="Helvetica, Arial, sans-serif" font-size="12" text-anchor="end">Salida del cole</text></g><g><circle cx="631.0828429702794" cy="350" r="2"/><text transform="translate(631.0828429702794,357) rotate(-90)" alignment-baseline="middle" font-family="Helvetica, Arial, sans-serif" font-size="12" text-anchor="end">Merienda con Mamá</text></g><g><circle cx="658.800375047251" cy="350" r="10.520128672302583"/><text transform="translate(658.800375047251,365.5201286723026) rotate(-90)" alignment-baseline="middle" font-family="Helvetica, Arial, sans-serif" font-size="12" text-anchor="end">Baño Marilú</text></g><g><circle cx="690.3282245018853" cy="350" r="5.810317377662722"/><text transform="translate(690.3282245018853,360.8103173776627) rotate(-90)" alignment-baseline="middle" font-family="Helvetica, Arial, sans-serif" font-size="12" text-anchor="end">Tablet</text></g><g><circle cx="713.335945284217" cy="350" r="2"/><text transform="translate(713.335945284217,357) rotate(-90)" alignment-baseline="middle" font-family="Helvetica, Arial, sans-serif" font-size="12" text-anchor="end">Tele con Mamá</text></g><g><circle cx="732.533348688886" cy="350" r="2"/><text transform="translate(732.533348688886,357) rotate(-90)" alignment-baseline="middle" font-family="Helvetica, Arial, sans-serif" font-size="12" text-anchor="end">Diplomatura</text></g><g><circle cx="751.730752093555" cy="350" r="2"/><text transform="translate(751.730752093555,357) rotate(-90)" alignment-baseline="middle" font-family="Helvetica, Arial, sans-serif" font-size="12" text-anchor="end">Cena en soledad</text></g><g><circle cx="774.7384728758867" cy="350" r="5.810317377662722"/><text transform="translate(774.7384728758867,360.8103173776627) rotate(-90)" alignment-baseline="middle" font-family="Helvetica, Arial, sans-serif" font-size="12" text-anchor="end">Tarea</text></g><g><circle cx="797.7461936582184" cy="350" r="2"/><text transform="translate(797.7461936582184,357) rotate(-90)" alignment-baseline="middle" font-family="Helvetica, Arial, sans-serif" font-size="12" text-anchor="end">Cena con la Madre</text></g><g><circle cx="826.2769303962208" cy="350" r="11.333333333333334"/><text transform="translate(826.2769303962208,366.3333333333333) rotate(-90)" alignment-baseline="middle" font-family="Helvetica, Arial, sans-serif" font-size="12" text-anchor="end">Merienda</text></g><g><circle cx="860.1962696466595" cy="350" r="7.388602512436508"/><text transform="translate(860.1962696466595,362.38860251243653) rotate(-90)" alignment-baseline="middle" font-family="Helvetica, Arial, sans-serif" font-size="12" text-anchor="end">Llevar a Marilú a Casa</text></g><g><circle cx="884.782275563765" cy="350" r="2"/><text transform="translate(884.782275563765,357) rotate(-90)" alignment-baseline="middle" font-family="Helvetica, Arial, sans-serif" font-size="12" text-anchor="end">Gimnasia artística</text></g><g><circle cx="903.979678968434" cy="350" r="2"/><text transform="translate(903.979678968434,357) rotate(-90)" alignment-baseline="middle" font-family="Helvetica, Arial, sans-serif" font-size="12" text-anchor="end">Tiempo Marilú-Abuela</text></g><g><circle cx="923.177082373103" cy="350" r="2"/><text transform="translate(923.177082373103,357) rotate(-90)" alignment-baseline="middle" font-family="Helvetica, Arial, sans-serif" font-size="12" text-anchor="end">Cena con la Abuela</text></g><g><circle cx="946.1848031554347" cy="350" r="5.810317377662722"/><text transform="translate(946.1848031554347,360.8103173776627) rotate(-90)" alignment-baseline="middle" font-family="Helvetica, Arial, sans-serif" font-size="12" text-anchor="end">Tablet + TV</text></g><g><circle cx="969.1925239377664" cy="350" r="2"/><text transform="translate(969.1925239377664,357) rotate(-90)" alignment-baseline="middle" font-family="Helvetica, Arial, sans-serif" font-size="12" text-anchor="end">Compras en el Super</text></g><g><circle cx="993.7785298548719" cy="350" r="7.388602512436508"/><text transform="translate(993.7785298548719,362.38860251243653) rotate(-90)" alignment-baseline="middle" font-family="Helvetica, Arial, sans-serif" font-size="12" text-anchor="end">Preparo el desayuno a Marilú</text></g><g><circle cx="1023.7531382844138" cy="350" r="7.388602512436508"/><text transform="translate(1023.7531382844138,362.38860251243653) rotate(-90)" alignment-baseline="middle" font-family="Helvetica, Arial, sans-serif" font-size="12" text-anchor="end">Preparar almuerzo</text></g><g><circle cx="1055.9597789568447" cy="350" r="9.620634755325444"/><text transform="translate(1055.9597789568447,364.62063475532545) rotate(-90)" alignment-baseline="middle" font-family="Helvetica, Arial, sans-serif" font-size="12" text-anchor="end">Almuerzo</text></g><g><circle cx="1095.977143698988" cy="350" r="15.199326582148887"/><text transform="translate(1095.977143698988,370.1993265821489) rotate(-90)" alignment-baseline="middle" font-family="Helvetica, Arial, sans-serif" font-size="12" text-anchor="end">Tiempo en familia</text></g><g><circle cx="1132.1841910634685" cy="350" r="5.810317377662722"/><text transform="translate(1132.1841910634685,360.8103173776627) rotate(-90)" alignment-baseline="middle" font-family="Helvetica, Arial, sans-serif" font-size="12" text-anchor="end">Cena Delivery</text></g><g><circle cx="1155.1919118458002" cy="350" r="2"/><text transform="translate(1155.1919118458002,357) rotate(-90)" alignment-baseline="middle" font-family="Helvetica, Arial, sans-serif" font-size="12" text-anchor="end">Ocio + Varios</text></g><g><circle cx="1182.0099500057945" cy="350" r="9.620634755325444"/><text transform="translate(1182.0099500057945,364.62063475532545) rotate(-90)" alignment-baseline="middle" font-family="Helvetica, Arial, sans-serif" font-size="12" text-anchor="end">Tablet + Tv</text></g><g><circle cx="1214.2165906782254" cy="350" r="7.388602512436508"/><text transform="translate(1214.2165906782254,362.38860251243653) rotate(-90)" alignment-baseline="middle" font-family="Helvetica, Arial, sans-serif" font-size="12" text-anchor="end">Votar en familia</text></g><g><circle cx="1238.802596595331" cy="350" r="2"/><text transform="translate(1238.802596595331,357) rotate(-90)" alignment-baseline="middle" font-family="Helvetica, Arial, sans-serif" font-size="12" text-anchor="end">Siesta</text></g><g><circle cx="1257.9999999999998" cy="350" r="2"/><text transform="translate(1257.9999999999998,357) rotate(-90)" alignment-baseline="middle" font-family="Helvetica, Arial, sans-serif" font-size="12" text-anchor="end">Tiempo Marilú-Mamá</text></g></g></g></svg>