<svg xmlns="http://www.w3.org/2000/svg" width="805" height="600"><rect width="805" height="600" x="0" y="0" fill="#FFFFFF" id="backgorund"/><g id="viz"><g transform="translate(0,0)"><g transform="translate(10,20)"><g><path fill="#1f77b4" d="M0,279C43.61111111111111,384,87.2222222222222,489,130.83333333333331,489C174.44444444444443,489,218.05555555555551,115.66666666666669,261.66666666666663,115.66666666666669C305.27777777777777,115.66666666666669,348.88888888888886,395.66666666666663,392.5,395.66666666666663C436.1111111111111,395.66666666666663,479.7222222222222,388.22222222222223,523.3333333333333,373.33333333333337C566.9444444444445,358.4444444444445,610.5555555555555,22.333333333333314,654.1666666666667,22.333333333333314C697.7777777777778,22.333333333333314,741.3888888888889,45.66666666666666,785,69L785,325.66666666666663C741.3888888888889,314,697.7777777777778,302.33333333333337,654.1666666666667,302.33333333333337C610.5555555555555,302.33333333333337,566.9444444444445,560,523.3333333333333,560C479.7222222222222,560,436.1111111111111,524.1666666666666,392.5,489C348.88888888888886,453.8333333333333,305.27777777777777,349,261.66666666666663,349C218.05555555555551,349,174.44444444444443,535.6666666666667,130.83333333333331,535.6666666666667C87.2222222222222,535.6666666666667,43.61111111111111,489.00000000000006,0,442.3333333333333Z"><title>Julián</title></path><path fill="#ff7f0e" d="M0,443.3333333333333C43.61111111111111,490.00000000000006,87.2222222222222,536.6666666666667,130.83333333333331,536.6666666666667C174.44444444444443,536.6666666666667,218.05555555555551,350,261.66666666666663,350C305.27777777777777,350,348.88888888888886,490,392.5,490C436.1111111111111,490,479.7222222222222,185.66666666666669,523.3333333333333,185.66666666666669C566.9444444444445,185.66666666666669,610.5555555555555,287.7777777777778,654.1666666666667,303.33333333333337C697.7777777777778,318.88888888888886,741.3888888888889,322.77777777777777,785,326.66666666666663L785,560C741.3888888888889,560,697.7777777777778,560,654.1666666666667,560C610.5555555555555,560,566.9444444444445,372.33333333333337,523.3333333333333,372.33333333333337C479.7222222222222,372.33333333333337,436.1111111111111,560,392.5,560C348.88888888888886,560,305.27777777777777,560,261.66666666666663,560C218.05555555555551,560,174.44444444444443,560,130.83333333333331,560C87.2222222222222,560,43.61111111111111,560,0,560Z"><title>Marilú</title></path></g><g id="xAxis" transform="translate(0,560)" fill="none" font-size="10" font-family="sans-serif" text-anchor="middle"><path class="domain" stroke="currentColor" d="M0.5,0.5H785.5"/><g class="tick" opacity="1" transform="translate(0.5,0)"><line stroke="currentColor" y2="6"/><text fill="currentColor" y="9" dy="0.71em">Mon 08</text></g><g class="tick" opacity="1" transform="translate(65.91666666666666,0)"><line stroke="currentColor" y2="6"/><text fill="currentColor" y="9" dy="0.71em">12 PM</text></g><g class="tick" opacity="1" transform="translate(131.33333333333331,0)"><line stroke="currentColor" y2="6"/><text fill="currentColor" y="9" dy="0.71em">Tue 09</text></g><g class="tick" opacity="1" transform="translate(196.75,0)"><line stroke="currentColor" y2="6"/><text fill="currentColor" y="9" dy="0.71em">12 PM</text></g><g class="tick" opacity="1" transform="translate(262.16666666666663,0)"><line stroke="currentColor" y2="6"/><text fill="currentColor" y="9" dy="0.71em">Wed 10</text></g><g class="tick" opacity="1" transform="translate(327.58333333333337,0)"><line stroke="currentColor" y2="6"/><text fill="currentColor" y="9" dy="0.71em">12 PM</text></g><g class="tick" opacity="1" transform="translate(393,0)"><line stroke="currentColor" y2="6"/><text fill="currentColor" y="9" dy="0.71em">Thu 11</text></g><g class="tick" opacity="1" transform="translate(458.4166666666667,0)"><line stroke="currentColor" y2="6"/><text fill="currentColor" y="9" dy="0.71em">12 PM</text></g><g class="tick" opacity="1" transform="translate(523.8333333333333,0)"><line stroke="currentColor" y2="6"/><text fill="currentColor" y="9" dy="0.71em">Fri 12</text></g><g class="tick" opacity="1" transform="translate(589.25,0)"><line stroke="currentColor" y2="6"/><text fill="currentColor" y="9" dy="0.71em">12 PM</text></g><g class="tick" opacity="1" transform="translate(654.6666666666667,0)"><line stroke="currentColor" y2="6"/><text fill="currentColor" y="9" dy="0.71em">Sat 13</text></g><g class="tick" opacity="1" transform="translate(720.0833333333333,0)"><line stroke="currentColor" y2="6"/><text fill="currentColor" y="9" dy="0.71em">12 PM</text></g><g class="tick" opacity="1" transform="translate(785.5,0)"><line stroke="currentColor" y2="6"/><text fill="currentColor" y="9" dy="0.71em">Nov 14</text></g></g><text y="556" x="785" text-anchor="end" style="font-family: Arial, sans-serif; font-size: 12px; fill: rgb(123, 123, 123); font-weight: bold;">Día</text><text x="4" text-anchor="start" dominant-baseline="hanging" style="font-family: Arial, sans-serif; font-size: 12px; fill: rgb(123, 123, 123); font-weight: bold;">Estrellas</text><g id="labels"><text x="654.1666666666667" y="163.33333333333331" text-anchor="middle" alignment-baseline="middle" style="font-family: Arial, sans-serif; font-size: 10px; fill: black; font-weight: bold;">Julián</text><text x="654.1666666666667" y="431.6666666666667" text-anchor="middle" alignment-baseline="middle" style="font-family: Arial, sans-serif; font-size: 10px; fill: black; font-weight: bold;">Marilú</text></g></g><text x="4" y="4" style="font-family: Arial, sans-serif; font-size: 12px; fill: black; font-weight: bold; dominant-baseline: hanging;"/></g></g></svg>