<svg xmlns="http://www.w3.org/2000/svg" width="805" height="600"><rect width="805" height="600" x="0" y="0" fill="#FFFFFF" id="backgorund"/><g transform="translate(10,10)" id="visualization"><g><rect x="780" y="-5.684341886080802e-14" height="0.3696567792812857" width="5" fill="black"><title>Cena con la Madre: 0.33</title></rect><rect x="780" y="5.369656779281229" height="0.9297428084954049" width="5" fill="black"><title>Preparo el desayuno a Marilú: 0.8300000000000001</title></rect><rect x="780" y="11.299399587776634" height="1.1201720584281816" width="5" fill="black"><title>Cena con la Abuela: 1</title></rect><rect x="780" y="17.419571646204815" height="1.1201720584281816" width="5" fill="black"><title>Tablet + TV: 1</title></rect><rect x="780" y="23.539743704632997" height="1.1201720584281247" width="5" fill="black"><title>Cena Delivery: 1</title></rect><rect x="780" y="29.65991576306112" height="1.1201720584281247" width="5" fill="black"><title>Tiempo Marilú-Mamá: 1</title></rect><rect x="780" y="35.780087821489246" height="1.3106013083609582" width="5" fill="black"><title>Gimnasia artística: 1.17</title></rect><rect x="780" y="42.090689129850205" height="1.5346357200466016" width="5" fill="black"><title>Ir al Cole: 1.37</title></rect><rect x="780" y="48.625324849896806" height="1.680258087642244" width="5" fill="black"><title>Tarea: 1.5</title></rect><rect x="780" y="55.30558293753905" height="1.960301102249332" width="5" fill="black"><title>Preparar almuerzo: 1.75</title></rect><rect x="780" y="62.26588403978838" height="2.049914866923551" width="5" fill="black"><title>Aseo personal: 1.83</title></rect><rect x="780" y="69.31579890671193" height="2.0499148669235865" width="5" fill="black"><title>Cena en soledad: 1.83</title></rect><rect x="780" y="76.36571377363552" height="2.0499148669235865" width="5" fill="black"><title>Tiempo Marilú-Abuela: 1.83</title></rect><rect x="780" y="83.4156286405591" height="2.240344116856363" width="5" fill="black"><title>Estudio: 2</title></rect><rect x="780" y="90.65597275741547" height="2.240344116856363" width="5" fill="black"><title>Compras en el Super: 2</title></rect><rect x="780" y="97.89631687427183" height="2.240344116856363" width="5" fill="black"><title>Siesta: 2</title></rect><rect x="780" y="105.1366609911282" height="2.43077336678914" width="5" fill="black"><title>Merienda con Mamá: 2.17</title></rect><rect x="780" y="112.56743435791734" height="2.531588852047676" width="5" fill="black"><title>Despertar: 2.26</title></rect><rect x="780" y="120.09902320996501" height="2.8004301460704255" width="5" fill="black"><title>Tablet: 2.5</title></rect><rect x="780" y="127.89945335603544" height="2.8004301460704397" width="5" fill="black"><title>Llevar a Marilú a Casa: 2.5</title></rect><rect x="780" y="135.69988350210588" height="3.248498969441698" width="5" fill="black"><title>Cambio de Ropa a Marilú: 2.9000000000000004</title></rect><rect x="780" y="143.94838247154757" height="3.360516175284488" width="5" fill="black"><title>Ocio + Varios: 3</title></rect><rect x="780" y="152.30889864683206" height="3.360516175284488" width="5" fill="black"><title>Votar en familia: 3</title></rect><rect x="780" y="160.66941482211655" height="3.5397437046330253" width="5" fill="black"><title>Preparar cena: 3.16</title></rect><rect x="780" y="169.20915852674958" height="3.5397437046330538" width="5" fill="black"><title>Baño Marilú: 3.16</title></rect><rect x="780" y="177.74890223138263" height="3.5397437046330538" width="5" fill="black"><title>Almuerzo: 3.16</title></rect><rect x="780" y="186.28864593601568" height="3.6069540281387162" width="5" fill="black"><title>Break del trabajo: 3.22</title></rect><rect x="780" y="194.8955999641544" height="4.559100277802685" width="5" fill="black"><title>Desayuno: 4.07</title></rect><rect x="780" y="204.45470024195708" height="5.051975983511056" width="5" fill="black"><title>Almuerzo en solitario: 4.51</title></rect><rect x="780" y="214.50667622546814" height="5.085581145263916" width="5" fill="black"><title>Gym + Aseo personal: 4.54</title></rect><rect x="780" y="224.59225737073206" height="5.410431042208074" width="5" fill="black"><title>Tele con Mamá: 4.83</title></rect><rect x="780" y="235.00268841294013" height="5.410431042208074" width="5" fill="black"><title>Merienda: 4.83</title></rect><rect x="780" y="245.4131194551482" height="6.620216865310567" width="5" fill="black"><title>Tablet + Tv: 5.91</title></rect><rect x="780" y="257.0333363204588" height="7.460345909131661" width="5" fill="black"><title>Salida del cole: 6.66</title></rect><rect x="780" y="269.49368222959043" height="7.4715476297159285" width="5" fill="black"><title>Diplomatura: 6.67</title></rect><rect x="780" y="281.96522985930636" height="10.059145084684985" width="5" fill="black"><title>Ocio: 8.98</title></rect><rect x="780" y="297.02437494399135" height="10.652836275651907" width="5" fill="black"><title>Cena en familia: 9.51</title></rect><rect x="780" y="312.67721121964325" height="17.18343937628822" width="5" fill="black"><title>Tiempo en familia: 15.34</title></rect><rect x="780" y="334.8606505959315" height="19.042924993278973" width="5" fill="black"><title>Tiempo Marilú-Papá: 17</title></rect><rect x="780" y="358.90357558921045" height="35.29662156107179" width="5" fill="black"><title>Trabajo: 31.50999999999999</title></rect><rect x="520" y="97.49999999999997" height="41.63679541177521" width="5" fill="black"><title>1: 37.17</title></rect><rect x="780" y="399.20019715028224" height="44.6164530871942" width="5" fill="black"><title>En el Cole: 39.83</title></rect><rect x="520" y="144.13679541177518" height="52.35684201093284" width="5" fill="black"><title>0.5: 46.739999999999995</title></rect><rect x="260" y="99.99999999999994" height="93.06389461421276" width="5" fill="black"><title>Si: 83.08</title></rect><rect x="780" y="448.81665023747644" height="131.18334976252356" width="5" fill="black"><title>Dormir: 117.11</title></rect><rect x="0" y="100" height="187.2255578456851" width="5" fill="black"><title>Marilú: 167.14</title></rect><rect x="0" y="292.2255578456851" height="187.7744421543149" width="5" fill="black"><title>Julián: 167.62999999999997</title></rect><rect x="520" y="201.49363742270802" height="281.00636257729195" width="5" fill="black"><title>0: 250.86000000000007</title></rect><rect x="260" y="198.0638946142127" height="281.93610538578736" width="5" fill="black"><title>No: 251.69000000000008</title></rect></g><g fill="none" stroke-opacity="1"><g style="mix-blend-mode: multiply;"><path d="M5,410.62214356125105C132.5,410.62214356125105,132.5,410.622143561251,260,410.622143561251" stroke="#8c564b" stroke-width="138.75571287749798"/><title>Julián → No: 123.86999999999998</title></g><g style="mix-blend-mode: multiply;"><path d="M5,316.73492248409354C132.5,316.73492248409354,132.5,168.55452997580423,260,168.55452997580423" stroke="#8c564b" stroke-width="49.01872927681692"/><title>Julián → Si: 43.76</title></g><g style="mix-blend-mode: multiply;"><path d="M5,215.63536159154046C132.5,215.63536159154046,132.5,269.65409086835734,260,269.65409086835734" stroke="#e377c2" stroke-width="143.1803925082893"/><title>Marilú → No: 127.82</title></g><g style="mix-blend-mode: multiply;"><path d="M5,122.02258266869791C132.5,122.02258266869791,132.5,122.02258266869785,260,122.02258266869785" stroke="#e377c2" stroke-width="44.04516533739583"/><title>Marilú → Si: 39.32</title></g><g style="mix-blend-mode: multiply;"><path d="M265,339.4968187113541C392.5,339.4968187113541,392.5,341.996818711354,520,341.996818711354" stroke="#d62728" stroke-width="281.006362577292"/><title>No → 0: 250.86000000000007</title></g><g style="mix-blend-mode: multiply;"><path d="M265,167.35034501299396C392.5,167.35034501299396,392.5,169.85034501299393,520,169.85034501299393" stroke="#9467bd" stroke-width="51.427099202437496"/><title>Si → 0.5: 45.91</title></g><g style="mix-blend-mode: multiply;"><path d="M265,120.81839770588758C392.5,120.81839770588758,392.5,118.3183977058876,520,118.3183977058876" stroke="#9467bd" stroke-width="41.63679541177525"/><title>Si → 1: 37.17</title></g><g style="mix-blend-mode: multiply;"><path d="M265,198.5287660184604C392.5,198.5287660184604,392.5,196.02876601846037,520,196.02876601846037" stroke="#d62728" stroke-width="1"/><title>No → 0.5: 0.83</title></g><g style="mix-blend-mode: multiply;"><path d="M525,221.79115512142656C652.5,221.79115512142656,652.5,113.83322878394117,780,113.83322878394117" stroke="#1f77b4" stroke-width="2.5315888520476744"/><title>0 → Despertar: 2.26</title></g><g style="mix-blend-mode: multiply;"><path d="M525,234.7347432565641C652.5,234.7347432565641,652.5,197.17515010305573,780,197.17515010305573" stroke="#1f77b4" stroke-width="4.5591002778026715"/><title>0 → Desayuno: 4.07</title></g><g style="mix-blend-mode: multiply;"><path d="M525,207.3689398691638C652.5,207.3689398691638,652.5,63.29084147325016,780,63.29084147325016" stroke="#1f77b4" stroke-width="2.04991486692356"/><title>0 → Aseo personal: 1.83</title></g><g style="mix-blend-mode: multiply;"><path d="M525,158.02692893628452C652.5,158.02692893628452,652.5,137.32413298682673,780,137.32413298682673" stroke="#ff7f0e" stroke-width="3.248498969441707"/><title>0.5 → Cambio de Ropa a Marilú: 2.9000000000000004</title></g><g style="mix-blend-mode: multiply;"><path d="M525,148.07420019715022C652.5,148.07420019715022,652.5,42.8580069898735,780,42.8580069898735" stroke="#ff7f0e" stroke-width="1.5346357200465994"/><title>0.5 → Ir al Cole: 1.37</title></g><g style="mix-blend-mode: multiply;"><path d="M525,244.60905995160846C652.5,244.60905995160846,652.5,217.0494667981001,780,217.0494667981001" stroke="#1f77b4" stroke-width="5.085581145263913"/><title>0 → Gym + Aseo personal: 4.54</title></g><g style="mix-blend-mode: multiply;"><path d="M525,289.8920154135674C652.5,289.8920154135674,652.5,377.39201541356744,780,377.39201541356744" stroke="#1f77b4" stroke-width="33.61636347342951"/><title>0 → Trabajo: 30.00999999999999</title></g><g style="mix-blend-mode: multiply;"><path d="M525,230.6517161035934C652.5,230.6517161035934,652.5,188.09212295008504,780,188.09212295008504" stroke="#1f77b4" stroke-width="3.606954028138723"/><title>0 → Break del trabajo: 3.22</title></g><g style="mix-blend-mode: multiply;"><path d="M525,239.54028138722097C652.5,239.54028138722097,652.5,206.9806882337126,780,206.9806882337126" stroke="#1f77b4" stroke-width="5.051975983511068"/><title>0 → Almuerzo en solitario: 4.51</title></g><g style="mix-blend-mode: multiply;"><path d="M525,129.61533291513575C652.5,129.61533291513575,652.5,344.38211309257093,780,344.38211309257093" stroke="#2ca02c" stroke-width="19.04292499327897"/><title>1 → Tiempo Marilú-Papá: 17</title></g><g style="mix-blend-mode: multiply;"><path d="M525,164.7815664486064C652.5,164.7815664486064,652.5,162.43928667443308,780,162.43928667443308" stroke="#ff7f0e" stroke-width="3.539743704633032"/><title>0.5 → Preparar cena: 3.16</title></g><g style="mix-blend-mode: multiply;"><path d="M525,189.4869611972398C652.5,189.4869611972398,652.5,302.3507930818173,780,302.3507930818173" stroke="#ff7f0e" stroke-width="10.652836275651941"/><title>0.5 → Cena en familia: 9.51</title></g><g style="mix-blend-mode: multiply;"><path d="M525,152.11242046778378C652.5,152.11242046778378,652.5,83.9757146697732,780,83.9757146697732" stroke="#ff7f0e" stroke-width="1.1201720584281747"/><title>0.5 → Estudio: 1</title></g><g style="mix-blend-mode: multiply;"><path d="M525,268.33430414911714C652.5,268.33430414911714,652.5,287.27484541625586,780,287.27484541625586" stroke="#1f77b4" stroke-width="9.499059055470921"/><title>0 → Ocio: 8.48</title></g><g style="mix-blend-mode: multiply;"><path d="M525,416.9083251187381C652.5,416.9083251187381,652.5,514.4083251187382,780,514.4083251187382" stroke="#1f77b4" stroke-width="131.18334976252353"/><title>0 → Dormir: 117.11</title></g><g style="mix-blend-mode: multiply;"><path d="M525,329.0084236938792C652.5,329.0084236938792,652.5,421.5084236938793,780,421.5084236938793" stroke="#1f77b4" stroke-width="44.616453087194195"/><title>0 → En el Cole: 39.83</title></g><g style="mix-blend-mode: multiply;"><path d="M525,255.36271171251892C652.5,255.36271171251892,652.5,263.74316695044354,780,263.74316695044354" stroke="#1f77b4" stroke-width="1.5010305582937542"/><title>0 → Salida del cole: 1.34</title></g><g style="mix-blend-mode: multiply;"><path d="M525,219.30997401200815C652.5,219.30997401200815,652.5,106.35204767452277,780,106.35204767452277" stroke="#1f77b4" stroke-width="2.430773366789139"/><title>0 → Merienda con Mamá: 2.17</title></g><g style="mix-blend-mode: multiply;"><path d="M525,228.56819607491698C652.5,228.56819607491698,652.5,172.46885921677554,780,172.46885921677554" stroke="#1f77b4" stroke-width="1"/><title>0 → Baño Marilú: 0.5</title></g><g style="mix-blend-mode: multiply;"><path d="M525,153.13737790124557C652.5,153.13737790124557,652.5,120.5638946142127,780,120.5638946142127" stroke="#ff7f0e" stroke-width="1"/><title>0.5 → Tablet: 0.83</title></g><g style="mix-blend-mode: multiply;"><path d="M525,249.85706604534445C652.5,249.85706604534445,652.5,227.2974728918361,780,227.2974728918361" stroke="#1f77b4" stroke-width="5.410431042208084"/><title>0 → Tele con Mamá: 4.83</title></g><g style="mix-blend-mode: multiply;"><path d="M525,259.84900080652375C652.5,259.84900080652375,652.5,273.2294560444484,780,273.2294560444484" stroke="#1f77b4" stroke-width="7.471547629715925"/><title>0 → Diplomatura: 6.67</title></g><g style="mix-blend-mode: multiply;"><path d="M525,209.41885473608735C652.5,209.41885473608735,652.5,70.34075634017371,780,70.34075634017371" stroke="#1f77b4" stroke-width="2.04991486692356"/><title>0 → Cena en soledad: 1.83</title></g><g style="mix-blend-mode: multiply;"><path d="M525,223.99229321623793C652.5,223.99229321623793,652.5,121.96410968724793,780,121.96410968724793" stroke="#1f77b4" stroke-width="1.8706873375750517"/><title>0 → Tablet: 1.67</title></g><g style="mix-blend-mode: multiply;"><path d="M525,205.87911103145433C652.5,205.87911103145433,652.5,49.840711533291376,780,49.840711533291376" stroke="#1f77b4" stroke-width="1"/><title>0 → Tarea: 0.83</title></g><g style="mix-blend-mode: multiply;"><path d="M525,201.67846581234866C652.5,201.67846581234866,652.5,0.18482838964059198,780,0.18482838964059198" stroke="#1f77b4" stroke-width="1"/><title>0 → Cena con la Madre: 0.33</title></g><g style="mix-blend-mode: multiply;"><path d="M525,180.62079935478076C652.5,180.62079935478076,652.5,260.0129939958777,780,260.0129939958777" stroke="#ff7f0e" stroke-width="5.9593153508378895"/><title>0.5 → Salida del cole: 5.32</title></g><g style="mix-blend-mode: multiply;"><path d="M525,100.20521552110401C652.5,100.20521552110401,652.5,237.70790393404417,780,237.70790393404417" stroke="#2ca02c" stroke-width="5.410431042208084"/><title>1 → Merienda: 4.83</title></g><g style="mix-blend-mode: multiply;"><path d="M525,168.04126713863238C652.5,168.04126713863238,652.5,170.69898736445904,780,170.69898736445904" stroke="#ff7f0e" stroke-width="2.9796576754189448"/><title>0.5 → Baño Marilú: 2.66</title></g><g style="mix-blend-mode: multiply;"><path d="M525,149.21677569674696C652.5,149.21677569674696,652.5,49.00058248947025,780,49.00058248947025" stroke="#ff7f0e" stroke-width="1"/><title>0.5 → Tarea: 0.67</title></g><g style="mix-blend-mode: multiply;"><path d="M525,155.00246437852846C652.5,155.00246437852846,652.5,129.29966842907066,780,129.29966842907066" stroke="#ff7f0e" stroke-width="2.8004301460704366"/><title>0.5 → Llevar a Marilú a Casa: 2.5</title></g><g style="mix-blend-mode: multiply;"><path d="M525,204.75893897302615C652.5,204.75893897302615,652.5,36.435388475669725,780,36.435388475669725" stroke="#1f77b4" stroke-width="1.3106013083609642"/><title>0 → Gimnasia artística: 1.17</title></g><g style="mix-blend-mode: multiply;"><path d="M525,211.4687696030109C652.5,211.4687696030109,652.5,77.3906712070973,780,77.3906712070973" stroke="#1f77b4" stroke-width="2.04991486692356"/><title>0 → Tiempo Marilú-Abuela: 1.83</title></g><g style="mix-blend-mode: multiply;"><path d="M525,202.4233802312034C652.5,202.4233802312034,652.5,11.859485616990721,780,11.859485616990721" stroke="#1f77b4" stroke-width="1.1201720584281747"/><title>0 → Cena con la Abuela: 1</title></g><g style="mix-blend-mode: multiply;"><path d="M525,195.65350837888687C652.5,195.65350837888687,652.5,359.7437046330316,780,359.7437046330316" stroke="#ff7f0e" stroke-width="1.6802580876422621"/><title>0.5 → Trabajo: 1.5</title></g><g style="mix-blend-mode: multiply;"><path d="M525,213.05381306568677C652.5,213.05381306568677,652.5,85.09588672820138,780,85.09588672820138" stroke="#1f77b4" stroke-width="1.1201720584281747"/><title>0 → Estudio: 1</title></g><g style="mix-blend-mode: multiply;"><path d="M525,145.62662424948465C652.5,145.62662424948465,652.5,17.979657675418903,780,17.979657675418903" stroke="#ff7f0e" stroke-width="1.1201720584281747"/><title>0.5 → Tablet + TV: 1</title></g><g style="mix-blend-mode: multiply;"><path d="M525,214.73407115332904C652.5,214.73407115332904,652.5,91.77614481584365,780,91.77614481584365" stroke="#1f77b4" stroke-width="2.2403441168563494"/><title>0 → Compras en el Super: 2</title></g><g style="mix-blend-mode: multiply;"><path d="M525,144.60166681602288C652.5,144.60166681602288,652.5,5.8345281835289216,780,5.8345281835289216" stroke="#ff7f0e" stroke-width="1"/><title>0.5 → Preparo el desayuno a Marilú: 0.8300000000000001</title></g><g style="mix-blend-mode: multiply;"><path d="M525,150.57218388744505C652.5,150.57218388744505,652.5,56.2857334886637,780,56.2857334886637" stroke="#ff7f0e" stroke-width="1.9603011022493058"/><title>0.5 → Preparar almuerzo: 1.75</title></g><g style="mix-blend-mode: multiply;"><path d="M525,171.30096782865837C652.5,171.30096782865837,652.5,179.51877408369916,780,179.51877408369916" stroke="#ff7f0e" stroke-width="3.539743704633032"/><title>0.5 → Almuerzo: 3.16</title></g><g style="mix-blend-mode: multiply;"><path d="M525,111.50215073035216C652.5,111.50215073035216,652.5,321.26893090778736,780,321.26893090778736" stroke="#2ca02c" stroke-width="17.1834393762882"/><title>1 → Tiempo en familia: 15.34</title></g><g style="mix-blend-mode: multiply;"><path d="M525,146.74679630791283C652.5,146.74679630791283,652.5,24.099829733847084,780,24.099829733847084" stroke="#ff7f0e" stroke-width="1.1201720584281747"/><title>0.5 → Cena Delivery: 1</title></g><g style="mix-blend-mode: multiply;"><path d="M525,226.6078949726677C652.5,226.6078949726677,652.5,145.62864055918985,780,145.62864055918985" stroke="#1f77b4" stroke-width="3.3605161752845243"/><title>0 → Ocio + Varios: 3</title></g><g style="mix-blend-mode: multiply;"><path d="M525,175.35599068016836C652.5,175.35599068016836,652.5,247.6982704543417,780,247.6982704543417" stroke="#ff7f0e" stroke-width="4.570301998386952"/><title>0.5 → Tablet + Tv: 4.08</title></g><g style="mix-blend-mode: multiply;"><path d="M525,253.58723899991028C652.5,253.58723899991028,652.5,251.00837888699695,780,251.00837888699695" stroke="#1f77b4" stroke-width="2.04991486692356"/><title>0 → Tablet + Tv: 1.83</title></g><g style="mix-blend-mode: multiply;"><path d="M525,161.33143650864764C652.5,161.33143650864764,652.5,153.98915673447434,780,153.98915673447434" stroke="#ff7f0e" stroke-width="3.3605161752845243"/><title>0.5 → Votar en familia: 3</title></g><g style="mix-blend-mode: multiply;"><path d="M525,183.88050004480675C652.5,183.88050004480675,652.5,282.2452728739134,780,282.2452728739134" stroke="#ff7f0e" stroke-width="1"/><title>0.5 → Ocio: 0.5</title></g><g style="mix-blend-mode: multiply;"><path d="M525,216.9744152701854C652.5,216.9744152701854,652.5,99.01648893270001,780,99.01648893270001" stroke="#1f77b4" stroke-width="2.2403441168563494"/><title>0 → Siesta: 2</title></g><g style="mix-blend-mode: multiply;"><path d="M525,203.54355228963158C652.5,203.54355228963158,652.5,30.22000179227521,780,30.22000179227521" stroke="#1f77b4" stroke-width="1.1201720584281747"/><title>0 → Tiempo Marilú-Mamá: 1</title></g></g><g><text x="776" y="0.184828389640586" text-anchor="end"><tspan alignment-baseline="middle" x="776" style="font-family: Arial, sans-serif; font-size: 10px; fill: black; font-weight: bold;">Cena con la Madre</tspan></text><text x="776" y="5.834528183528931" text-anchor="end"><tspan alignment-baseline="middle" x="776" style="font-family: Arial, sans-serif; font-size: 10px; fill: black; font-weight: bold;">Preparo el desayuno a Marilú</tspan></text><text x="776" y="11.859485616990725" text-anchor="end"><tspan alignment-baseline="middle" x="776" style="font-family: Arial, sans-serif; font-size: 10px; fill: black; font-weight: bold;">Cena con la Abuela</tspan></text><text x="776" y="17.979657675418906" text-anchor="end"><tspan alignment-baseline="middle" x="776" style="font-family: Arial, sans-serif; font-size: 10px; fill: black; font-weight: bold;">Tablet + TV</tspan></text><text x="776" y="24.09982973384706" text-anchor="end"><tspan alignment-baseline="middle" x="776" style="font-family: Arial, sans-serif; font-size: 10px; fill: black; font-weight: bold;">Cena Delivery</tspan></text><text x="776" y="30.220001792275184" text-anchor="end"><tspan alignment-baseline="middle" x="776" style="font-family: Arial, sans-serif; font-size: 10px; fill: black; font-weight: bold;">Tiempo Marilú-Mamá</tspan></text><text x="776" y="36.435388475669725" text-anchor="end"><tspan alignment-baseline="middle" x="776" style="font-family: Arial, sans-serif; font-size: 10px; fill: black; font-weight: bold;">Gimnasia artística</tspan></text><text x="776" y="42.8580069898735" text-anchor="end"><tspan alignment-baseline="middle" x="776" style="font-family: Arial, sans-serif; font-size: 10px; fill: black; font-weight: bold;">Ir al Cole</tspan></text><text x="776" y="49.46545389371793" text-anchor="end"><tspan alignment-baseline="middle" x="776" style="font-family: Arial, sans-serif; font-size: 10px; fill: black; font-weight: bold;">Tarea</tspan></text><text x="776" y="56.285733488663716" text-anchor="end"><tspan alignment-baseline="middle" x="776" style="font-family: Arial, sans-serif; font-size: 10px; fill: black; font-weight: bold;">Preparar almuerzo</tspan></text><text x="776" y="63.290841473250154" text-anchor="end"><tspan alignment-baseline="middle" x="776" style="font-family: Arial, sans-serif; font-size: 10px; fill: black; font-weight: bold;">Aseo personal</tspan></text><text x="776" y="70.34075634017373" text-anchor="end"><tspan alignment-baseline="middle" x="776" style="font-family: Arial, sans-serif; font-size: 10px; fill: black; font-weight: bold;">Cena en soledad</tspan></text><text x="776" y="77.39067120709731" text-anchor="end"><tspan alignment-baseline="middle" x="776" style="font-family: Arial, sans-serif; font-size: 10px; fill: black; font-weight: bold;">Tiempo Marilú-Abuela</tspan></text><text x="776" y="84.53580069898729" text-anchor="end"><tspan alignment-baseline="middle" x="776" style="font-family: Arial, sans-serif; font-size: 10px; fill: black; font-weight: bold;">Estudio</tspan></text><text x="776" y="91.77614481584365" text-anchor="end"><tspan alignment-baseline="middle" x="776" style="font-family: Arial, sans-serif; font-size: 10px; fill: black; font-weight: bold;">Compras en el Super</tspan></text><text x="776" y="99.01648893270001" text-anchor="end"><tspan alignment-baseline="middle" x="776" style="font-family: Arial, sans-serif; font-size: 10px; fill: black; font-weight: bold;">Siesta</tspan></text><text x="776" y="106.35204767452277" text-anchor="end"><tspan alignment-baseline="middle" x="776" style="font-family: Arial, sans-serif; font-size: 10px; fill: black; font-weight: bold;">Merienda con Mamá</tspan></text><text x="776" y="113.83322878394117" text-anchor="end"><tspan alignment-baseline="middle" x="776" style="font-family: Arial, sans-serif; font-size: 10px; fill: black; font-weight: bold;">Despertar</tspan></text><text x="776" y="121.49923828300022" text-anchor="end"><tspan alignment-baseline="middle" x="776" style="font-family: Arial, sans-serif; font-size: 10px; fill: black; font-weight: bold;">Tablet</tspan></text><text x="776" y="129.29966842907066" text-anchor="end"><tspan alignment-baseline="middle" x="776" style="font-family: Arial, sans-serif; font-size: 10px; fill: black; font-weight: bold;">Llevar a Marilú a Casa</tspan></text><text x="776" y="137.32413298682673" text-anchor="end"><tspan alignment-baseline="middle" x="776" style="font-family: Arial, sans-serif; font-size: 10px; fill: black; font-weight: bold;">Cambio de Ropa a Marilú</tspan></text><text x="776" y="145.62864055918982" text-anchor="end"><tspan alignment-baseline="middle" x="776" style="font-family: Arial, sans-serif; font-size: 10px; fill: black; font-weight: bold;">Ocio + Varios</tspan></text><text x="776" y="153.9891567344743" text-anchor="end"><tspan alignment-baseline="middle" x="776" style="font-family: Arial, sans-serif; font-size: 10px; fill: black; font-weight: bold;">Votar en familia</tspan></text><text x="776" y="162.43928667443305" text-anchor="end"><tspan alignment-baseline="middle" x="776" style="font-family: Arial, sans-serif; font-size: 10px; fill: black; font-weight: bold;">Preparar cena</tspan></text><text x="776" y="170.9790303790661" text-anchor="end"><tspan alignment-baseline="middle" x="776" style="font-family: Arial, sans-serif; font-size: 10px; fill: black; font-weight: bold;">Baño Marilú</tspan></text><text x="776" y="179.51877408369916" text-anchor="end"><tspan alignment-baseline="middle" x="776" style="font-family: Arial, sans-serif; font-size: 10px; fill: black; font-weight: bold;">Almuerzo</tspan></text><text x="776" y="188.09212295008504" text-anchor="end"><tspan alignment-baseline="middle" x="776" style="font-family: Arial, sans-serif; font-size: 10px; fill: black; font-weight: bold;">Break del trabajo</tspan></text><text x="776" y="197.17515010305573" text-anchor="end"><tspan alignment-baseline="middle" x="776" style="font-family: Arial, sans-serif; font-size: 10px; fill: black; font-weight: bold;">Desayuno</tspan></text><text x="776" y="206.9806882337126" text-anchor="end"><tspan alignment-baseline="middle" x="776" style="font-family: Arial, sans-serif; font-size: 10px; fill: black; font-weight: bold;">Almuerzo en solitario</tspan></text><text x="776" y="217.0494667981001" text-anchor="end"><tspan alignment-baseline="middle" x="776" style="font-family: Arial, sans-serif; font-size: 10px; fill: black; font-weight: bold;">Gym + Aseo personal</tspan></text><text x="776" y="227.2974728918361" text-anchor="end"><tspan alignment-baseline="middle" x="776" style="font-family: Arial, sans-serif; font-size: 10px; fill: black; font-weight: bold;">Tele con Mamá</tspan></text><text x="776" y="237.70790393404417" text-anchor="end"><tspan alignment-baseline="middle" x="776" style="font-family: Arial, sans-serif; font-size: 10px; fill: black; font-weight: bold;">Merienda</tspan></text><text x="776" y="248.7232278878035" text-anchor="end"><tspan alignment-baseline="middle" x="776" style="font-family: Arial, sans-serif; font-size: 10px; fill: black; font-weight: bold;">Tablet + Tv</tspan></text><text x="776" y="260.7635092750246" text-anchor="end"><tspan alignment-baseline="middle" x="776" style="font-family: Arial, sans-serif; font-size: 10px; fill: black; font-weight: bold;">Salida del cole</tspan></text><text x="776" y="273.2294560444484" text-anchor="end"><tspan alignment-baseline="middle" x="776" style="font-family: Arial, sans-serif; font-size: 10px; fill: black; font-weight: bold;">Diplomatura</tspan></text><text x="776" y="286.9948024016488" text-anchor="end"><tspan alignment-baseline="middle" x="776" style="font-family: Arial, sans-serif; font-size: 10px; fill: black; font-weight: bold;">Ocio</tspan></text><text x="776" y="302.3507930818173" text-anchor="end"><tspan alignment-baseline="middle" x="776" style="font-family: Arial, sans-serif; font-size: 10px; fill: black; font-weight: bold;">Cena en familia</tspan></text><text x="776" y="321.26893090778736" text-anchor="end"><tspan alignment-baseline="middle" x="776" style="font-family: Arial, sans-serif; font-size: 10px; fill: black; font-weight: bold;">Tiempo en familia</tspan></text><text x="776" y="344.382113092571" text-anchor="end"><tspan alignment-baseline="middle" x="776" style="font-family: Arial, sans-serif; font-size: 10px; fill: black; font-weight: bold;">Tiempo Marilú-Papá</tspan></text><text x="776" y="376.55188636974634" text-anchor="end"><tspan alignment-baseline="middle" x="776" style="font-family: Arial, sans-serif; font-size: 10px; fill: black; font-weight: bold;">Trabajo</tspan></text><text x="516" y="118.31839770588758" text-anchor="end"><tspan alignment-baseline="middle" x="516" style="font-family: Arial, sans-serif; font-size: 10px; fill: black; font-weight: bold;">1</tspan></text><text x="776" y="421.5084236938793" text-anchor="end"><tspan alignment-baseline="middle" x="776" style="font-family: Arial, sans-serif; font-size: 10px; fill: black; font-weight: bold;">En el Cole</tspan></text><text x="516" y="170.3152164172416" text-anchor="end"><tspan alignment-baseline="middle" x="516" style="font-family: Arial, sans-serif; font-size: 10px; fill: black; font-weight: bold;">0.5</tspan></text><text x="269" y="146.53194730710632" text-anchor="start"><tspan alignment-baseline="middle" x="269" style="font-family: Arial, sans-serif; font-size: 10px; fill: black; font-weight: bold;">Si</tspan></text><text x="776" y="514.4083251187383" text-anchor="end"><tspan alignment-baseline="middle" x="776" style="font-family: Arial, sans-serif; font-size: 10px; fill: black; font-weight: bold;">Dormir</tspan></text><text x="9" y="193.61277892284255" text-anchor="start"><tspan alignment-baseline="middle" x="9" style="font-family: Arial, sans-serif; font-size: 10px; fill: black; font-weight: bold;">Marilú</tspan></text><text x="9" y="386.11277892284255" text-anchor="start"><tspan alignment-baseline="middle" x="9" style="font-family: Arial, sans-serif; font-size: 10px; fill: black; font-weight: bold;">Julián</tspan></text><text x="516" y="341.99681871135397" text-anchor="end"><tspan alignment-baseline="middle" x="516" style="font-family: Arial, sans-serif; font-size: 10px; fill: black; font-weight: bold;">0</tspan></text><text x="269" y="339.0319473071064" text-anchor="start"><tspan alignment-baseline="middle" x="269" style="font-family: Arial, sans-serif; font-size: 10px; fill: black; font-weight: bold;">No</tspan></text></g><g><text x="782.5" y="-4.000000000000057" text-anchor="middle" style="font-family: Arial, sans-serif; font-size: 12px; fill: rgb(123, 123, 123); font-weight: bold;">Actividad</text><text x="522.5" y="93.49999999999997" text-anchor="middle" style="font-family: Arial, sans-serif; font-size: 12px; fill: rgb(123, 123, 123); font-weight: bold;">Estrellas</text><text x="262.5" y="95.99999999999994" text-anchor="middle" style="font-family: Arial, sans-serif; font-size: 12px; fill: rgb(123, 123, 123); font-weight: bold;">Momento Juntos</text><text x="2.5" y="96" text-anchor="middle" style="font-family: Arial, sans-serif; font-size: 12px; fill: rgb(123, 123, 123); font-weight: bold;">Nombre</text></g></g></svg>