<svg xmlns="http://www.w3.org/2000/svg" width="1000" height="1000"><rect width="1000" height="1000" x="0" y="0" fill="#FFFFFF" id="backgorund"/><g transform="translate(10,10)" id="viz"><g id="arcs"><path d="M30,490A21.038600739129315,21.038600739129315 0,0,1 72.07720147825863,490" fill="none" stroke="gray" stroke-width="0.6557627636808315" opacity="0.5"/><path d="M30,490A270.51017503584256,270.51017503584256 0,0,1 571.0203500716851,490" fill="none" stroke="gray" stroke-width="0.7612350963008254" opacity="0.5"/><path d="M30,490A29.539977080314465,29.539977080314465 0,0,1 89.07995416062893,490" fill="none" stroke="gray" stroke-width="0.8391929073677774" opacity="0.5"/><path d="M30,490A38.25719359398606,38.25719359398606 0,0,1 106.51438718797212,490" fill="none" stroke="gray" stroke-width="0.6465912564964842" opacity="0.5"/><path d="M30,490A46.77728107633992,46.77728107633992 0,0,1 123.55456215267984,490" fill="none" stroke="gray" stroke-width="0.6282482421277897" opacity="0.5"/><path d="M30,490A55.75994308632954,55.75994308632954 0,0,1 141.51988617265908,490" fill="none" stroke="gray" stroke-width="2.081932130846836" opacity="0.5"/><path d="M30,490A69.54678624689949,69.54678624689949 0,0,1 169.09357249379897,490" fill="none" stroke="gray" stroke-width="14.449709568939157" opacity="0.5"/><path d="M30,490A82.9699921685246,82.9699921685246 0,0,1 195.9399843370492,490" fill="none" stroke="gray" stroke-width="1.4766126566799145" opacity="0.5"/><path d="M30,490A92.61973280517755,92.61973280517755 0,0,1 215.2394656103551,490" fill="none" stroke="gray" stroke-width="2.0681748700703144" opacity="0.5"/><path d="M30,490A104.7874986328592,104.7874986328592 0,0,1 239.5749972657184,490" fill="none" stroke="gray" stroke-width="3.8978905533476" opacity="0.5"/><path d="M30,490A116.58108932846307,116.58108932846307 0,0,1 263.16217865692613,490" fill="none" stroke="gray" stroke-width="1.4490981351268726" opacity="0.5"/><path d="M30,490A127.25089455812744,127.25089455812744 0,0,1 284.5017891162549,490" fill="none" stroke="gray" stroke-width="2.3708346071537756" opacity="0.5"/><path d="M30,490A137.5277225949842,137.5277225949842 0,0,1 305.0554451899684,490" fill="none" stroke="gray" stroke-width="0.9171507184347294" opacity="0.5"/><path d="M30,490A147.710298930818,147.710298930818 0,0,1 325.420597861636,490" fill="none" stroke="gray" stroke-width="4.118006725771935" opacity="0.5"/><path d="M30,490A289.8063789700513,289.8063789700513 0,0,1 609.6127579401026,490" fill="none" stroke="gray" stroke-width="23.70376031794558" opacity="0.5"/><path d="M671.8012711615705,490A299.86203484165594,299.86203484165594 0,0,1 72.07720147825863,490" fill="none" stroke="gray" stroke-width="0.3806175481504127" opacity="0.5"/><path d="M671.8012711615705,490A50.3904605449427,50.3904605449427 0,0,1 571.0203500716851,490" fill="none" stroke="gray" stroke-width="1.1051666157138489" opacity="0.5"/><path d="M671.8012711615705,490A282.6434419867992,282.6434419867992 0,0,1 106.51438718797212,490" fill="none" stroke="gray" stroke-width="0.6832772852338735" opacity="0.5"/><path d="M671.8012711615705,490A26.216838909804096,26.216838909804096 0,0,1 724.2349489811787,490" fill="none" stroke="gray" stroke-width="18.265056557627634" opacity="0.5"/><path d="M671.8012711615705,490A161.7464238355101,161.7464238355101 0,0,1 348.30842349055035,490" fill="none" stroke="gray" stroke-width="1.4536838887190462" opacity="0.5"/><path d="M671.8012711615705,490A40.04703075059325,40.04703075059325 0,0,1 751.895332662757,490" fill="none" stroke="gray" stroke-width="0.9951085295016814" opacity="0.5"/><path d="M671.8012711615705,490A48.975122372629755,48.975122372629755 0,0,1 769.75151590683,490" fill="none" stroke="gray" stroke-width="1.0684805869764598" opacity="0.5"/><path d="M671.8012711615705,490A216.11313694792608,216.11313694792608 0,0,1 239.5749972657184,490" fill="none" stroke="gray" stroke-width="3.8978905533476" opacity="0.5"/><path d="M671.8012711615705,490A58.02004665026709,58.02004665026709 0,0,1 787.8413644621047,490" fill="none" stroke="gray" stroke-width="1.1464383980434119" opacity="0.5"/><path d="M671.8012711615705,490A193.64974102265782,193.64974102265782 0,0,1 284.5017891162549,490" fill="none" stroke="gray" stroke-width="1.9902170590033628" opacity="0.5"/><path d="M671.8012711615705,490A67.51921746648986,67.51921746648986 0,0,1 806.8397060945503,490" fill="none" stroke="gray" stroke-width="2.2149189850198714" opacity="0.5"/><path d="M671.8012711615705,490A31.094256610733964,31.094256610733964 0,0,1 609.6127579401026,490" fill="none" stroke="gray" stroke-width="30" opacity="0.5"/><path d="M30,490A170.1504272373834,170.1504272373834 0,0,1 370.3008544747668,490" fill="none" stroke="gray" stroke-width="3.0586976459798225" opacity="0.5"/><path d="M30,490A179.81887174146317,179.81887174146317 0,0,1 389.63774348292634,490" fill="none" stroke="gray" stroke-width="0.8391929073677774" opacity="0.5"/><path d="M671.8012711615705,490A76.63301420640846,76.63301420640846 0,0,1 825.0672995743874,490" fill="none" stroke="gray" stroke-width="0.687863038826047" opacity="0.5"/><path d="M671.8012711615705,490A83.99154518718649,83.99154518718649 0,0,1 839.7843615359435,490" fill="none" stroke="gray" stroke-width="0.15132986854173036" opacity="0.5"/><path d="M30,490A159.15421174527518,159.15421174527518 0,0,1 348.30842349055035,490" fill="none" stroke="gray" stroke-width="1.600428003668603" opacity="0.5"/><path d="M30,490A413.3028107873545,413.3028107873545 0,0,1 856.605621574709,490" fill="none" stroke="gray" stroke-width="0.687863038826047" opacity="0.5"/><path d="M30,490A369.875757953415,369.875757953415 0,0,1 769.75151590683,490" fill="none" stroke="gray" stroke-width="0.3806175481504127" opacity="0.5"/><path d="M671.8012711615705,490A92.40217520656921,92.40217520656921 0,0,1 856.605621574709,490" fill="none" stroke="gray" stroke-width="1.5270559461938245" opacity="0.5"/><path d="M30,490A422.8019816035772,422.8019816035772 0,0,1 875.6039632071544,490" fill="none" stroke="gray" stroke-width="0.4585753592173647" opacity="0.5"/><path d="M671.8012711615705,490A110.19370382596924,110.19370382596924 0,0,1 892.188678813509,490" fill="none" stroke="gray" stroke-width="0.5365331702843167" opacity="0.5"/><path d="M671.8012711615705,490A118.23912835064897,118.23912835064897 0,0,1 908.2795278628685,490" fill="none" stroke="gray" stroke-width="0.8391929073677774" opacity="0.5"/><path d="M671.8012711615705,490A126.19624688519337,126.19624688519337 0,0,1 924.1937649319573,490" fill="none" stroke="gray" stroke-width="0.4585753592173647" opacity="0.5"/><path d="M671.8012711615705,490A101.90134602279193,101.90134602279193 0,0,1 875.6039632071544,490" fill="none" stroke="gray" stroke-width="0.687863038826047" opacity="0.5"/><path d="M671.8012711615705,490A133.77190465735504,133.77190465735504 0,0,1 939.3450804762806,490" fill="none" stroke="gray" stroke-width="0.4585753592173647" opacity="0.5"/><path d="M30,490A188.22388554779545,188.22388554779545 0,0,1 406.4477710955909,490" fill="none" stroke="gray" stroke-width="0.9171507184347294" opacity="0.5"/><path d="M30,490A196.15124845457035,196.15124845457035 0,0,1 422.3024969091407,490" fill="none" stroke="gray" stroke-width="0.3806175481504127" opacity="0.5"/><path d="M30,490A203.97984632725363,203.97984632725363 0,0,1 437.95969265450725,490" fill="none" stroke="gray" stroke-width="0.8025068786303883" opacity="0.5"/><path d="M30,490A212.74550680170697,212.74550680170697 0,0,1 455.49101360341393,490" fill="none" stroke="gray" stroke-width="0.7245490675634363" opacity="0.5"/><path d="M30,490A224.31583364283904,224.31583364283904 0,0,1 478.6316672856781,490" fill="none" stroke="gray" stroke-width="3.5172730051971874" opacity="0.5"/><path d="M30,490A235.04528801937568,235.04528801937568 0,0,1 500.09057603875135,490" fill="none" stroke="gray" stroke-width="0.4585753592173647" opacity="0.5"/><path d="M30,490A243.41252319315618,243.41252319315618 0,0,1 516.8250463863124,490" fill="none" stroke="gray" stroke-width="1.375726077652094" opacity="0.5"/><path d="M671.8012711615705,490A142.89497711844837,142.89497711844837 0,0,1 957.5912253984673,490" fill="none" stroke="gray" stroke-width="2.7101803729746257" opacity="0.5"/><path d="M671.8012711615705,490A108.1551287790783,108.1551287790783 0,0,1 455.49101360341393,490" fill="none" stroke="gray" stroke-width="0.7245490675634363" opacity="0.5"/><path d="M671.8012711615705,490A96.58480193794622,96.58480193794622 0,0,1 478.6316672856781,490" fill="none" stroke="gray" stroke-width="3.5172730051971874" opacity="0.5"/><path d="M30,490A252.57133576855557,252.57133576855557 0,0,1 535.1426715371111,490" fill="none" stroke="gray" stroke-width="0.687863038826047" opacity="0.5"/><path d="M30,490A261.38646621412397,261.38646621412397 0,0,1 552.7729324282479,490" fill="none" stroke="gray" stroke-width="0.9171507184347294" opacity="0.5"/><path d="M671.8012711615705,490A68.32929981222969,68.32929981222969 0,0,1 535.1426715371111,490" fill="none" stroke="gray" stroke-width="0.687863038826047" opacity="0.5"/><path d="M671.8012711615705,490A152.01804957954164,152.01804957954164 0,0,1 975.8373703206538,490" fill="none" stroke="gray" stroke-width="0.4585753592173647" opacity="0.5"/></g><g id="nodes"><g><circle cx="30" cy="490" r="30"/><text transform="translate(30,525) rotate(-90)" alignment-baseline="middle" font-family="Helvetica, Arial, sans-serif" font-size="12" text-anchor="end">Julián</text></g><g><circle cx="72.07720147825863" cy="490" r="5.251145292627566"/><text transform="translate(72.07720147825863,500.25114529262754) rotate(-90)" alignment-baseline="middle" font-family="Helvetica, Arial, sans-serif" font-size="12" text-anchor="end">Despertar</text></g><g><circle cx="89.07995416062893" cy="490" r="4.925551204111673"/><text transform="translate(89.07995416062893,499.9255512041117) rotate(-90)" alignment-baseline="middle" font-family="Helvetica, Arial, sans-serif" font-size="12" text-anchor="end">Aseo personal</text></g><g><circle cx="106.51438718797212" cy="490" r="5.682825637600446"/><text transform="translate(106.51438718797212,500.68282563760044) rotate(-90)" alignment-baseline="middle" font-family="Helvetica, Arial, sans-serif" font-size="12" text-anchor="end">Cambio de Ropa a Marilú</text></g><g><circle cx="123.55456215267984" cy="490" r="4.531293141476205"/><text transform="translate(123.55456215267984,499.5312931414762) rotate(-90)" alignment-baseline="middle" font-family="Helvetica, Arial, sans-serif" font-size="12" text-anchor="end">Ir al Cole</text></g><g><circle cx="141.51988617265908" cy="490" r="6.607974692871972"/><text transform="translate(141.51988617265908,501.60797469287195) rotate(-90)" alignment-baseline="middle" font-family="Helvetica, Arial, sans-serif" font-size="12" text-anchor="end">Gym + Aseo personal</text></g><g><circle cx="169.09357249379897" cy="490" r="14.139655442636862"/><text transform="translate(169.09357249379897,509.13965544263687) rotate(-90)" alignment-baseline="middle" font-family="Helvetica, Arial, sans-serif" font-size="12" text-anchor="end">Trabajo</text></g><g><circle cx="195.9399843370492" cy="490" r="5.880700214982278"/><text transform="translate(195.9399843370492,500.88070021498226) rotate(-90)" alignment-baseline="middle" font-family="Helvetica, Arial, sans-serif" font-size="12" text-anchor="end">Break del trabajo</text></g><g><circle cx="215.2394656103551" cy="490" r="6.59272487269256"/><text transform="translate(215.2394656103551,501.59272487269254) rotate(-90)" alignment-baseline="middle" font-family="Helvetica, Arial, sans-serif" font-size="12" text-anchor="end">Almuerzo en solitario</text></g><g><circle cx="239.5749972657184" cy="490" r="10.91675059703967"/><text transform="translate(239.5749972657184,505.91675059703965) rotate(-90)" alignment-baseline="middle" font-family="Helvetica, Arial, sans-serif" font-size="12" text-anchor="end">Tiempo Marilú-Papá</text></g><g><circle cx="263.16217865692613" cy="490" r="5.844374608537023"/><text transform="translate(263.16217865692613,500.844374608537) rotate(-90)" alignment-baseline="middle" font-family="Helvetica, Arial, sans-serif" font-size="12" text-anchor="end">Preparar cena</text></g><g><circle cx="284.5017891162549" cy="490" r="8.669179665160641"/><text transform="translate(284.5017891162549,503.66917966516064) rotate(-90)" alignment-baseline="middle" font-family="Helvetica, Arial, sans-serif" font-size="12" text-anchor="end">Cena en familia</text></g><g><circle cx="305.0554451899684" cy="490" r="5.058420222921849"/><text transform="translate(305.0554451899684,500.0584202229218) rotate(-90)" alignment-baseline="middle" font-family="Helvetica, Arial, sans-serif" font-size="12" text-anchor="end">Estudio</text></g><g><circle cx="325.420597861636" cy="490" r="8.480676263114692"/><text transform="translate(325.420597861636,503.4806762631147) rotate(-90)" alignment-baseline="middle" font-family="Helvetica, Arial, sans-serif" font-size="12" text-anchor="end">Ocio</text></g><g><circle cx="348.30842349055035" cy="490" r="7.5810931801686054"/><text transform="translate(348.30842349055035,502.5810931801686) rotate(-90)" alignment-baseline="middle" font-family="Helvetica, Arial, sans-serif" font-size="12" text-anchor="end">Salida del cole</text></g><g><circle cx="370.3008544747668" cy="490" r="7.585281618416783"/><text transform="translate(370.3008544747668,502.5852816184168) rotate(-90)" alignment-baseline="middle" font-family="Helvetica, Arial, sans-serif" font-size="12" text-anchor="end">Diplomatura</text></g><g><circle cx="389.63774348292634" cy="490" r="4.925551204111673"/><text transform="translate(389.63774348292634,499.9255512041117) rotate(-90)" alignment-baseline="middle" font-family="Helvetica, Arial, sans-serif" font-size="12" text-anchor="end">Cena en soledad</text></g><g><circle cx="406.4477710955909" cy="490" r="5.058420222921849"/><text transform="translate(406.4477710955909,500.0584202229218) rotate(-90)" alignment-baseline="middle" font-family="Helvetica, Arial, sans-serif" font-size="12" text-anchor="end">Compras en el Super</text></g><g><circle cx="422.3024969091407" cy="490" r="3.9702494049968884"/><text transform="translate(422.3024969091407,498.9702494049969) rotate(-90)" alignment-baseline="middle" font-family="Helvetica, Arial, sans-serif" font-size="12" text-anchor="end">Preparo el desayuno a Marilú</text></g><g><circle cx="437.95969265450725" cy="490" r="4.860890154738585"/><text transform="translate(437.95969265450725,499.86089015473857) rotate(-90)" alignment-baseline="middle" font-family="Helvetica, Arial, sans-serif" font-size="12" text-anchor="end">Preparar almuerzo</text></g><g><circle cx="455.49101360341393" cy="490" r="5.844374608537023"/><text transform="translate(455.49101360341393,500.844374608537) rotate(-90)" alignment-baseline="middle" font-family="Helvetica, Arial, sans-serif" font-size="12" text-anchor="end">Almuerzo</text></g><g><circle cx="478.6316672856781" cy="490" r="10.470222888096046"/><text transform="translate(478.6316672856781,505.47022288809603) rotate(-90)" alignment-baseline="middle" font-family="Helvetica, Arial, sans-serif" font-size="12" text-anchor="end">Tiempo en familia</text></g><g><circle cx="500.09057603875135" cy="490" r="4.162629679346112"/><text transform="translate(500.09057603875135,499.16262967934614) rotate(-90)" alignment-baseline="middle" font-family="Helvetica, Arial, sans-serif" font-size="12" text-anchor="end">Cena Delivery</text></g><g><circle cx="516.8250463863124" cy="490" r="5.745784482583854"/><text transform="translate(516.8250463863124,500.7457844825839) rotate(-90)" alignment-baseline="middle" font-family="Helvetica, Arial, sans-serif" font-size="12" text-anchor="end">Ocio + Varios</text></g><g><circle cx="535.1426715371111" cy="490" r="5.745784482583854"/><text transform="translate(535.1426715371111,500.7457844825839) rotate(-90)" alignment-baseline="middle" font-family="Helvetica, Arial, sans-serif" font-size="12" text-anchor="end">Votar en familia</text></g><g><circle cx="552.7729324282479" cy="490" r="5.058420222921849"/><text transform="translate(552.7729324282479,500.0584202229218) rotate(-90)" alignment-baseline="middle" font-family="Helvetica, Arial, sans-serif" font-size="12" text-anchor="end">Siesta</text></g><g><circle cx="571.0203500716851" cy="490" r="6.362941234884314"/><text transform="translate(571.0203500716851,501.3629412348843) rotate(-90)" alignment-baseline="middle" font-family="Helvetica, Arial, sans-serif" font-size="12" text-anchor="end">Desayuno</text></g><g><circle cx="609.6127579401026" cy="490" r="25.40341044790209"/><text transform="translate(609.6127579401026,520.403410447902) rotate(-90)" alignment-baseline="middle" font-family="Helvetica, Arial, sans-serif" font-size="12" text-anchor="end">Dormir</text></g><g><circle cx="671.8012711615705" cy="490" r="29.959046587934747"/><text transform="translate(671.8012711615705,524.9590465879347) rotate(-90)" alignment-baseline="middle" font-family="Helvetica, Arial, sans-serif" font-size="12" text-anchor="end">Marilú</text></g><g><circle cx="724.2349489811787" cy="490" r="15.648575046042296"/><text transform="translate(724.2349489811787,510.6485750460423) rotate(-90)" alignment-baseline="middle" font-family="Helvetica, Arial, sans-serif" font-size="12" text-anchor="end">En el Cole</text></g><g><circle cx="751.895332662757" cy="490" r="5.185752449904951"/><text transform="translate(751.895332662757,500.18575244990495) rotate(-90)" alignment-baseline="middle" font-family="Helvetica, Arial, sans-serif" font-size="12" text-anchor="end">Merienda con Mamá</text></g><g><circle cx="769.75151590683" cy="490" r="5.844374608537023"/><text transform="translate(769.75151590683,500.844374608537) rotate(-90)" alignment-baseline="middle" font-family="Helvetica, Arial, sans-serif" font-size="12" text-anchor="end">Baño Marilú</text></g><g><circle cx="787.8413644621047" cy="490" r="5.419417761106657"/><text transform="translate(787.8413644621047,500.4194177611067) rotate(-90)" alignment-baseline="middle" font-family="Helvetica, Arial, sans-serif" font-size="12" text-anchor="end">Tablet</text></g><g><circle cx="806.8397060945503" cy="490" r="6.752867685707782"/><text transform="translate(806.8397060945503,501.75286768570777) rotate(-90)" alignment-baseline="middle" font-family="Helvetica, Arial, sans-serif" font-size="12" text-anchor="end">Tele con Mamá</text></g><g><circle cx="825.0672995743874" cy="490" r="4.648669608498387"/><text transform="translate(825.0672995743874,499.6486696084984) rotate(-90)" alignment-baseline="middle" font-family="Helvetica, Arial, sans-serif" font-size="12" text-anchor="end">Tarea</text></g><g><circle cx="839.7843615359435" cy="490" r="3.2423361674266182"/><text transform="translate(839.7843615359435,498.24233616742663) rotate(-90)" alignment-baseline="middle" font-family="Helvetica, Arial, sans-serif" font-size="12" text-anchor="end">Cena con la Madre</text></g><g><circle cx="856.605621574709" cy="490" r="6.752867685707782"/><text transform="translate(856.605621574709,501.75286768570777) rotate(-90)" alignment-baseline="middle" font-family="Helvetica, Arial, sans-serif" font-size="12" text-anchor="end">Merienda</text></g><g><circle cx="875.6039632071544" cy="490" r="5.419417761106657"/><text transform="translate(875.6039632071544,500.4194177611067) rotate(-90)" alignment-baseline="middle" font-family="Helvetica, Arial, sans-serif" font-size="12" text-anchor="end">Llevar a Marilú a Casa</text></g><g><circle cx="892.188678813509" cy="490" r="4.339241659616795"/><text transform="translate(892.188678813509,499.3392416596168) rotate(-90)" alignment-baseline="middle" font-family="Helvetica, Arial, sans-serif" font-size="12" text-anchor="end">Gimnasia artística</text></g><g><circle cx="908.2795278628685" cy="490" r="4.925551204111673"/><text transform="translate(908.2795278628685,499.9255512041117) rotate(-90)" alignment-baseline="middle" font-family="Helvetica, Arial, sans-serif" font-size="12" text-anchor="end">Tiempo Marilú-Abuela</text></g><g><circle cx="924.1937649319573" cy="490" r="4.162629679346112"/><text transform="translate(924.1937649319573,499.16262967934614) rotate(-90)" alignment-baseline="middle" font-family="Helvetica, Arial, sans-serif" font-size="12" text-anchor="end">Cena con la Abuela</text></g><g><circle cx="939.3450804762806" cy="490" r="4.162629679346112"/><text transform="translate(939.3450804762806,499.16262967934614) rotate(-90)" alignment-baseline="middle" font-family="Helvetica, Arial, sans-serif" font-size="12" text-anchor="end">Tablet + TV</text></g><g><circle cx="957.5912253984673" cy="490" r="7.257459057209386"/><text transform="translate(957.5912253984673,502.25745905720936) rotate(-90)" alignment-baseline="middle" font-family="Helvetica, Arial, sans-serif" font-size="12" text-anchor="end">Tablet + Tv</text></g><g><circle cx="975.8373703206538" cy="490" r="4.162629679346112"/><text transform="translate(975.8373703206538,499.16262967934614) rotate(-90)" alignment-baseline="middle" font-family="Helvetica, Arial, sans-serif" font-size="12" text-anchor="end">Tiempo Marilú-Mamá</text></g></g></g></svg>